<?xml version="1.0" encoding="utf-8"?>
<!-- Generator: Adobe Illustrator 16.0.0, SVG Export Plug-In . SVG Version: 6.00 Build 0)  -->
<!DOCTYPE svg PUBLIC "-//W3C//DTD SVG 1.1//EN" "http://www.w3.org/Graphics/SVG/1.1/DTD/svg11.dtd">
<svg version="1.1" id="Layer_1" xmlns="http://www.w3.org/2000/svg" xmlns:xlink="http://www.w3.org/1999/xlink" x="0px" y="0px"
	 width="29px" height="39.32px" viewBox="0 0 29 39.32" enable-background="new 0 0 29 39.32" xml:space="preserve">
<path d="M27,13.32v0.17C27,6,21.686,0,15,0C8.315,0,3,5.963,3,13.454V13.32H0v26h29v-26H27z M15.001,2.932
	c5.201,0,8.937,4.582,8.993,10.389H6.007C6.08,7.53,9.812,2.932,15.001,2.932z M16,24.645V35.32h-2v-1h-2v-1h2v-1h-2v-1h2v-6.477
	c-1-0.324-2.215-1.467-2.215-2.839c0-1.624,1.316-2.941,2.941-2.941c1.624,0,2.94,1.317,2.94,2.941
	C17.667,23.17,17,24.169,16,24.645z"/>
</svg>
